<?xml version="1.0" ?><svg height="24px" version="1.1" viewBox="0 0 24 24" width="24px" xmlns="http://www.w3.org/2000/svg" xmlns:sketch="http://www.bohemiancoding.com/sketch/ns" xmlns:xlink="http://www.w3.org/1999/xlink"><title/><desc/><defs/><g fill="none" fill-rule="evenodd" id="miu" stroke="none" stroke-width="1"><g id="Artboard-1" transform="translate(-611.000000, -191.000000)"><g id="slice" transform="translate(215.000000, 119.000000)"/><path d="M612,202.5 C612,196.148725 617.148725,191 623.5,191 C629.851275,191 635,196.148725 635,202.5 C635,208.851275 629.851275,214 623.5,214 C617.148725,214 612,208.851275 612,202.5 Z M629.5,204.5 C630.60457,204.5 631.5,203.60457 631.5,202.5 C631.5,201.39543 630.60457,200.5 629.5,200.5 C628.39543,200.5 627.5,201.39543 627.5,202.5 C627.5,203.60457 628.39543,204.5 629.5,204.5 Z M623.5,204.5 C624.60457,204.5 625.5,203.60457 625.5,202.5 C625.5,201.39543 624.60457,200.5 623.5,200.5 C622.39543,200.5 621.5,201.39543 621.5,202.5 C621.5,203.60457 622.39543,204.5 623.5,204.5 Z M617.5,204.5 C618.60457,204.5 619.5,203.60457 619.5,202.5 C619.5,201.39543 618.60457,200.5 617.5,200.5 C616.39543,200.5 615.5,201.39543 615.5,202.5 C615.5,203.60457 616.39543,204.5 617.5,204.5 Z" fill="#000000" id="circle-more-detail-glyph"/></g></g></svg>